
      <svg data-logo="logo" xmlns="http://www.w3.org/2000/svg" viewBox="0 0 359 43">
        <g id="logogram" transform="translate(0, 1) rotate(0) "><path fill-rule="evenodd" clip-rule="evenodd" d="M20.1719 5.45685L22.8086 0.889954L30.285 5.20648L27.6483 9.77338C27.186 10.5742 27.8792 11.5476 28.7872 11.3725L33.8389 10.3984L35.4735 18.8753L30.4218 19.8494C22.2497 21.4253 16.0106 12.6645 20.1719 5.45685Z" fill="#3A724F"/><path fill-rule="evenodd" clip-rule="evenodd" d="M15.6034 36.3231L12.9667 40.89L5.49021 36.5735L8.12691 32.0066C8.58928 31.2057 7.89604 30.2323 6.98803 30.4074L1.93636 31.3815L0.301758 22.9046L5.35343 21.9305C13.5255 20.3547 19.7647 29.1155 15.6034 36.3231Z" fill="#DC8E43"/><path fill-rule="evenodd" clip-rule="evenodd" d="M15.8321 5.45685L13.1954 0.889954L5.71891 5.20648L8.35561 9.77338C8.81797 10.5742 8.12474 11.5476 7.21673 11.3725L2.16505 10.3984L0.530457 18.8753L5.58213 19.8494C13.7542 21.4253 19.9934 12.6645 15.8321 5.45685Z" fill="#14424C"/><path fill-rule="evenodd" clip-rule="evenodd" d="M19.9514 36.3231L22.5881 40.89L30.0645 36.5735L27.4278 32.0066C26.9654 31.2057 27.6587 30.2323 28.5667 30.4074L33.6184 31.3815L35.253 22.9046L30.2013 21.9305C22.0292 20.3547 15.79 29.1155 19.9514 36.3231Z" fill="#C85D1B"/></g>
        <g id="logotype" transform="translate(42, 9)"><path fill="#111111" d="M12.51 25L6.35 25L16.57 0.01L23.96 0.01L34.14 25L27.39 25L19.34 3.93L20.63 3.93L12.51 25ZM27.00 19.86L13.11 19.86L13.11 15.20L27.00 15.20L27.00 19.86ZM42.33 25L36.27 25L36.27 7.01L42.33 7.01L42.33 25ZM42.33 4.63L36.24 4.63L36.24 0.01L42.33 0.01L42.33 4.63ZM68.16 25L61.90 25L61.90 5.01L53.18 5.01L53.18 0.01L76.84 0.01L76.84 5.01L68.16 5.01L68.16 25ZM82.97 25L76.95 25L76.95 7.01L82.97 7.01L82.97 12.96L82.55 12.75Q83.00 10.68 83.82 9.41Q84.65 8.13 85.91 7.57Q87.17 7.01 88.95 7.01L88.95 7.01L90.32 7.01L90.32 12.50L88.22 12.50Q86.57 12.50 85.40 13.20Q84.23 13.90 83.60 15.22Q82.97 16.53 82.97 18.38L82.97 18.38L82.97 25ZM98.05 25.49L98.05 25.49Q95.08 25.49 93.40 24.07Q91.72 22.66 91.72 20.27L91.72 20.27Q91.72 18.66 92.49 17.49Q93.26 16.32 94.83 15.55Q96.41 14.78 98.75 14.46L98.75 14.46L103.20 13.90Q103.97 13.76 104.35 13.40Q104.74 13.03 104.74 12.40L104.74 12.40L104.74 12.36Q104.74 11.73 104.39 11.30Q104.04 10.86 103.37 10.65Q102.71 10.44 101.73 10.44L101.73 10.44Q100.33 10.44 99.45 10.81Q98.58 11.17 98.40 12.08L98.40 12.08L92.49 12.08Q92.80 10.16 94.04 8.93Q95.29 7.71 97.28 7.11Q99.28 6.52 101.87 6.52L101.87 6.52Q104.81 6.52 106.78 7.27Q108.76 8.02 109.72 9.55Q110.69 11.07 110.69 13.41L110.69 13.41L110.69 25L105.05 25L105.05 20.38L105.65 21.04Q104.98 22.59 103.88 23.55Q102.78 24.51 101.31 25Q99.84 25.49 98.05 25.49ZM100.15 21.36L100.15 21.36Q101.20 21.36 102.06 20.99Q102.92 20.63 103.53 20.01Q104.14 19.40 104.44 18.63Q104.74 17.86 104.74 17.02L104.74 17.02L104.74 14.74L105.68 15.90Q105.26 16.32 104.65 16.53Q104.04 16.74 102.81 16.98L102.81 16.98L99.87 17.51Q98.82 17.75 98.28 18.24Q97.74 18.73 97.74 19.47L97.74 19.47Q97.74 20.38 98.40 20.87Q99.07 21.36 100.15 21.36ZM125.95 25L119.26 25L111.60 7.01L118.11 7.01L123.46 21.29L122.24 21.25L127.63 7.01L133.54 7.01L125.95 25ZM144.46 25.49L144.46 25.49Q141.28 25.49 138.93 24.27Q136.59 23.04 135.34 20.91Q134.10 18.77 134.10 16.00L134.10 16.00Q134.10 14.32 134.56 12.87Q135.01 11.42 135.89 10.26Q136.76 9.11 138.02 8.27Q139.28 7.43 140.89 6.97Q142.50 6.52 144.43 6.52L144.43 6.52Q146.67 6.52 148.54 7.13Q150.41 7.74 151.72 9.02Q153.04 10.30 153.74 12.36Q154.44 14.43 154.37 17.34L154.37 17.34L137.99 17.34L137.99 14.11L148.63 14.11Q148.45 13.13 148.10 12.49Q147.75 11.84 147.19 11.40Q146.63 10.96 145.93 10.77Q145.23 10.58 144.39 10.58L144.39 10.58Q143.48 10.58 142.75 10.82Q142.01 11.07 141.47 11.54Q140.93 12.01 140.56 12.68Q140.19 13.34 140.02 14.18Q139.84 15.02 139.84 16.00L139.84 16.00Q139.84 17.65 140.33 18.88Q140.82 20.10 141.87 20.77Q142.92 21.43 144.50 21.43L144.50 21.43Q145.86 21.43 146.81 21.01Q147.75 20.59 148.21 19.82L148.21 19.82L154.26 19.82Q153.95 21.29 152.81 22.59Q151.67 23.88 149.61 24.68Q147.54 25.49 144.46 25.49ZM163.22 25L157.20 25L157.20 0.01L163.22 0.01L163.22 25ZM182.64 25L176.27 25L176.27 0.01L190.31 0.01Q192.34 0.01 194.02 0.57Q195.70 1.13 196.92 2.21Q198.15 3.30 198.83 4.87Q199.51 6.45 199.51 8.44L199.51 8.44Q199.51 10.51 198.83 12.07Q198.15 13.62 196.92 14.73Q195.70 15.83 194.02 16.39Q192.34 16.95 190.31 16.95L190.31 16.95L182.64 16.95L182.64 25ZM182.64 4.91L182.64 12.01L189.44 12.01Q190.48 12.01 191.27 11.59Q192.06 11.17 192.51 10.37Q192.97 9.56 192.97 8.48L192.97 8.48Q192.97 6.80 191.99 5.85Q191.01 4.91 189.44 4.91L189.44 4.91L182.64 4.91ZM208.26 25L202.24 25L202.24 0.01L208.26 0.01L208.26 25ZM217.50 25.49L217.50 25.49Q214.53 25.49 212.85 24.07Q211.17 22.66 211.17 20.27L211.17 20.27Q211.17 18.66 211.94 17.49Q212.71 16.32 214.28 15.55Q215.86 14.78 218.20 14.46L218.20 14.46L222.65 13.90Q223.42 13.76 223.80 13.40Q224.19 13.03 224.19 12.40L224.19 12.40L224.19 12.36Q224.19 11.73 223.84 11.30Q223.49 10.86 222.82 10.65Q222.16 10.44 221.18 10.44L221.18 10.44Q219.78 10.44 218.90 10.81Q218.03 11.17 217.85 12.08L217.85 12.08L211.94 12.08Q212.25 10.16 213.50 8.93Q214.74 7.71 216.73 7.11Q218.73 6.52 221.32 6.52L221.32 6.52Q224.26 6.52 226.24 7.27Q228.21 8.02 229.18 9.55Q230.14 11.07 230.14 13.41L230.14 13.41L230.14 25L224.50 25L224.50 20.38L225.10 21.04Q224.43 22.59 223.33 23.55Q222.23 24.51 220.76 25Q219.29 25.49 217.50 25.49ZM219.60 21.36L219.60 21.36Q220.65 21.36 221.51 20.99Q222.37 20.63 222.98 20.01Q223.59 19.40 223.89 18.63Q224.19 17.86 224.19 17.02L224.19 17.02L224.19 14.74L225.13 15.90Q224.71 16.32 224.10 16.53Q223.49 16.74 222.26 16.98L222.26 16.98L219.32 17.51Q218.27 17.75 217.73 18.24Q217.19 18.73 217.19 19.47L217.19 19.47Q217.19 20.38 217.85 20.87Q218.52 21.36 219.60 21.36ZM239.66 25L233.60 25L233.60 7.01L239.66 7.01L239.66 11.63L239.06 10.96Q239.69 9.46 240.78 8.48Q241.86 7.50 243.32 7.01Q244.77 6.52 246.38 6.52L246.38 6.52Q248.16 6.52 249.49 7.06Q250.82 7.60 251.68 8.60Q252.54 9.60 252.99 11.02Q253.45 12.43 253.45 14.25L253.45 14.25L253.45 25L247.43 25L247.43 15.23Q247.43 13.94 247.01 13.05Q246.59 12.15 245.78 11.66Q244.98 11.17 243.82 11.17L243.82 11.17Q242.53 11.17 241.58 11.75Q240.64 12.33 240.15 13.33Q239.66 14.32 239.66 15.58L239.66 15.58L239.66 25ZM262.97 25L256.91 25L256.91 7.01L262.97 7.01L262.97 11.63L262.38 10.96Q263.00 9.46 264.09 8.48Q265.17 7.50 266.63 7.01Q268.08 6.52 269.69 6.52L269.69 6.52Q271.47 6.52 272.80 7.06Q274.13 7.60 274.99 8.60Q275.85 9.60 276.30 11.02Q276.76 12.43 276.76 14.25L276.76 14.25L276.76 25L270.74 25L270.74 15.23Q270.74 13.94 270.32 13.05Q269.90 12.15 269.09 11.66Q268.29 11.17 267.13 11.17L267.13 11.17Q265.84 11.17 264.89 11.75Q263.95 12.33 263.46 13.33Q262.97 14.32 262.97 15.58L262.97 15.58L262.97 25ZM289.78 25.49L289.78 25.49Q286.59 25.49 284.25 24.27Q281.90 23.04 280.66 20.91Q279.42 18.77 279.42 16.00L279.42 16.00Q279.42 14.32 279.88 12.87Q280.33 11.42 281.20 10.26Q282.08 9.11 283.34 8.27Q284.60 7.43 286.21 6.97Q287.82 6.52 289.74 6.52L289.74 6.52Q291.98 6.52 293.86 7.13Q295.73 7.74 297.04 9.02Q298.35 10.30 299.05 12.36Q299.75 14.43 299.68 17.34L299.68 17.34L283.30 17.34L283.30 14.11L293.94 14.11Q293.77 13.13 293.42 12.49Q293.07 11.84 292.51 11.40Q291.95 10.96 291.25 10.77Q290.55 10.58 289.71 10.58L289.71 10.58Q288.80 10.58 288.06 10.82Q287.33 11.07 286.79 11.54Q286.24 12.01 285.88 12.68Q285.51 13.34 285.33 14.18Q285.16 15.02 285.16 16.00L285.16 16.00Q285.16 17.65 285.65 18.88Q286.14 20.10 287.19 20.77Q288.24 21.43 289.81 21.43L289.81 21.43Q291.18 21.43 292.13 21.01Q293.07 20.59 293.52 19.82L293.52 19.82L299.58 19.82Q299.26 21.29 298.13 22.59Q296.99 23.88 294.92 24.68Q292.86 25.49 289.78 25.49ZM308.54 25L302.52 25L302.52 7.01L308.54 7.01L308.54 12.96L308.12 12.75Q308.57 10.68 309.40 9.41Q310.22 8.13 311.48 7.57Q312.74 7.01 314.52 7.01L314.52 7.01L315.89 7.01L315.89 12.50L313.79 12.50Q312.14 12.50 310.97 13.20Q309.80 13.90 309.17 15.22Q308.54 16.53 308.54 18.38L308.54 18.38L308.54 25Z"/></g>
        
      </svg>
    